<svg width="20" height="20" viewBox="0 0 20 20" fill="none" xmlns="http://www.w3.org/2000/svg">
<g clip-path="url(#clip0_50_65)">
<path d="M0.833984 0.833008H4.16732L6.40065 11.9913C6.47685 12.375 6.68557 12.7196 6.99027 12.9649C7.29497 13.2102 7.67623 13.3405 8.06732 13.333H16.1673C16.5584 13.3405 16.9397 13.2102 17.2444 12.9649C17.5491 12.7196 17.7578 12.375 17.834 11.9913L19.1673 4.99967H5.00065M8.33398 17.4997C8.33398 17.9599 7.96089 18.333 7.50065 18.333C7.04041 18.333 6.66732 17.9599 6.66732 17.4997C6.66732 17.0394 7.04041 16.6663 7.50065 16.6663C7.96089 16.6663 8.33398 17.0394 8.33398 17.4997ZM17.5007 17.4997C17.5007 17.9599 17.1276 18.333 16.6673 18.333C16.2071 18.333 15.834 17.9599 15.834 17.4997C15.834 17.0394 16.2071 16.6663 16.6673 16.6663C17.1276 16.6663 17.5007 17.0394 17.5007 17.4997Z" stroke="#00264B" stroke-width="2" stroke-linecap="round" stroke-linejoin="round"/>
</g>
<defs>
<clipPath id="clip0_50_65">
<rect width="20" height="20" fill="white"/>
</clipPath>
</defs>
</svg>
