<svg width="250" height="159" viewBox="0 0 250 159" fill="none" xmlns="http://www.w3.org/2000/svg">
<path d="M150.001 0V39.7301C150.001 44.0264 148.964 47.822 146.891 51.1255C144.818 54.4202 141.904 57.0121 138.16 58.8835C134.416 60.7637 130.028 61.695 124.996 61.695C123.102 61.695 121.297 61.5632 119.59 61.2996C119.635 61.2821 119.67 61.2557 119.715 61.2381C123.888 59.1471 127.186 56.2126 129.509 52.5049C129.742 52.1359 129.956 51.7669 130.153 51.3891C130.984 51.1343 131.77 50.8092 132.503 50.4138C134.603 49.2717 136.23 47.699 137.391 45.7046C138.553 43.7101 139.134 41.417 139.134 38.8339V0H150.001Z" fill="#00264B"/>
<path d="M113.369 46.8555C112.824 47.3212 112.225 47.7341 111.546 48.1031C109.857 49.0169 107.766 49.4825 105.335 49.4825C104.147 49.4825 103.047 49.3683 102.02 49.1487C100.67 46.3284 100 43.1918 100 39.7301V0H110.867V38.8339C110.867 41.417 111.448 43.7101 112.601 45.7046C112.833 46.1087 113.083 46.4865 113.369 46.8555Z" fill="#00264B"/>
<path d="M130.336 0V39.7301C130.336 44.0264 129.299 47.822 127.226 51.1255C127.029 51.4418 126.824 51.7493 126.609 52.048C124.589 54.9035 121.882 57.1878 118.495 58.8835C117.44 59.4107 116.332 59.8675 115.17 60.2453C114.009 59.8675 112.9 59.4107 111.837 58.8835C108.45 57.1878 105.742 54.9035 103.723 52.048C104.241 52.1007 104.777 52.1183 105.331 52.1183C108.236 52.1183 110.738 51.5472 112.838 50.4138C113.696 49.9482 114.473 49.4122 115.17 48.7972C116.189 47.9186 117.038 46.8819 117.726 45.7046C118.888 43.7101 119.469 41.417 119.469 38.8339V0H130.336Z" fill="#00264B"/>
<path d="M27.3234 88.7862H32.5734V113.536C32.5734 115.775 32.1302 117.69 31.2439 119.281C30.3689 120.871 29.1359 122.087 27.545 122.928C25.9541 123.758 24.0905 124.173 21.9541 124.173C19.9882 124.173 18.2211 123.815 16.653 123.099C15.0961 122.383 13.8632 121.343 12.9541 119.979C12.0564 118.604 11.6075 116.934 11.6075 114.968H16.8405C16.8405 115.934 17.062 116.769 17.5052 117.474C17.9598 118.178 18.5791 118.729 19.3632 119.127C20.1586 119.513 21.0677 119.707 22.0905 119.707C23.2041 119.707 24.1473 119.474 24.92 119.008C25.7041 118.531 26.3007 117.832 26.7098 116.911C27.1189 115.991 27.3234 114.866 27.3234 113.536V88.7862ZM66.0485 88.7862H71.3326V111.746C71.3326 114.19 70.7587 116.354 69.611 118.241C68.4632 120.116 66.8496 121.593 64.7701 122.673C62.6905 123.741 60.253 124.275 57.4576 124.275C54.6735 124.275 52.2416 123.741 50.1621 122.673C48.0826 121.593 46.4689 120.116 45.3212 118.241C44.1735 116.354 43.5996 114.19 43.5996 111.746V88.7862H48.8666V111.32C48.8666 112.9 49.2132 114.303 49.9064 115.531C50.611 116.758 51.6053 117.724 52.8894 118.428C54.1735 119.121 55.6962 119.468 57.4576 119.468C59.2303 119.468 60.7587 119.121 62.0428 118.428C63.3382 117.724 64.3269 116.758 65.0087 115.531C65.7019 114.303 66.0485 112.9 66.0485 111.32V88.7862ZM93.6514 123.695H82.3502V88.7862H94.0093C97.4298 88.7862 100.367 89.4851 102.822 90.8828C105.276 92.2692 107.157 94.2635 108.464 96.8658C109.782 99.4567 110.441 102.565 110.441 106.19C110.441 109.826 109.776 112.951 108.447 115.565C107.129 118.178 105.22 120.19 102.72 121.599C100.22 122.996 97.1968 123.695 93.6514 123.695ZM87.6173 119.093H93.3616C96.0207 119.093 98.2309 118.593 99.9923 117.593C101.754 116.582 103.072 115.121 103.947 113.212C104.822 111.292 105.259 108.951 105.259 106.19C105.259 103.451 104.822 101.127 103.947 99.218C103.083 97.3089 101.793 95.8601 100.077 94.8714C98.3616 93.8828 96.2309 93.3885 93.6855 93.3885H87.6173V119.093ZM121.565 123.695H115.974L128.537 88.7862H134.622L147.185 123.695H141.594L131.724 95.1271H131.452L121.565 123.695ZM122.503 110.025H140.639V114.457H122.503V110.025ZM160.853 88.7862V123.695H155.586V88.7862H160.853ZM200.878 100.138H195.559C195.355 99.0021 194.974 98.0021 194.417 97.1385C193.861 96.2749 193.179 95.5419 192.372 94.9396C191.565 94.3374 190.662 93.8828 189.662 93.576C188.673 93.2692 187.622 93.1158 186.508 93.1158C184.497 93.1158 182.696 93.6214 181.105 94.6328C179.525 95.6442 178.275 97.1271 177.355 99.0817C176.446 101.036 175.991 103.423 175.991 106.241C175.991 109.082 176.446 111.479 177.355 113.434C178.275 115.388 179.531 116.866 181.122 117.866C182.713 118.866 184.503 119.366 186.491 119.366C187.594 119.366 188.639 119.218 189.628 118.923C190.628 118.616 191.531 118.167 192.338 117.576C193.145 116.985 193.827 116.263 194.383 115.411C194.952 114.548 195.344 113.559 195.559 112.445L200.878 112.462C200.594 114.178 200.042 115.758 199.224 117.201C198.417 118.633 197.378 119.871 196.105 120.917C194.844 121.951 193.4 122.752 191.775 123.32C190.15 123.888 188.378 124.173 186.457 124.173C183.434 124.173 180.741 123.457 178.378 122.025C176.014 120.582 174.15 118.519 172.787 115.837C171.434 113.156 170.758 109.957 170.758 106.241C170.758 102.513 171.44 99.3146 172.804 96.6442C174.167 93.9624 176.031 91.9055 178.395 90.4737C180.758 89.0305 183.446 88.3089 186.457 88.3089C188.309 88.3089 190.037 88.576 191.639 89.1101C193.253 89.6328 194.702 90.4055 195.986 91.4283C197.27 92.4396 198.332 93.6783 199.173 95.1442C200.014 96.5987 200.582 98.2635 200.878 100.138ZM213.255 123.695H207.664L220.226 88.7862H226.312L238.874 123.695H233.283L223.414 95.1271H223.141L213.255 123.695ZM214.192 110.025H232.329V114.457H214.192V110.025Z" fill="#00264B"/>
<path d="M25.6896 133.513H28.4418V145.472C28.4418 146.744 28.1429 147.872 27.5451 148.854C26.9473 149.831 26.1069 150.6 25.0238 151.163C23.9407 151.719 22.6712 151.997 21.2152 151.997C19.7652 151.997 18.4986 151.719 17.4155 151.163C16.3324 150.6 15.492 149.831 14.8942 148.854C14.2964 147.872 13.9975 146.744 13.9975 145.472V133.513H16.7408V145.25C16.7408 146.073 16.9213 146.804 17.2823 147.443C17.6493 148.082 18.1671 148.585 18.8359 148.952C19.5047 149.313 20.2978 149.494 21.2152 149.494C22.1385 149.494 22.9345 149.313 23.6033 148.952C24.2781 148.585 24.793 148.082 25.1481 147.443C25.5091 146.804 25.6896 146.073 25.6896 145.25V133.513ZM32.4301 151.695V133.513H35.1734V142.196H35.3953L43.0214 133.513H46.4749L39.1418 141.699L46.5015 151.695H43.199L37.3218 143.572L35.1734 146.04V151.695H32.4301ZM49.0317 151.695V133.513H55.5125C56.9211 133.513 58.0901 133.756 59.0193 134.241C59.9544 134.727 60.6528 135.399 61.1144 136.257C61.5761 137.109 61.8069 138.094 61.8069 139.213C61.8069 140.326 61.5731 141.305 61.1056 142.152C60.6439 142.992 59.9455 143.646 59.0104 144.114C58.0812 144.581 56.9123 144.815 55.5036 144.815H50.5942V142.453H55.2551C56.1428 142.453 56.8649 142.326 57.4213 142.072C57.9835 141.817 58.3949 141.447 58.6553 140.962C58.9157 140.477 59.0459 139.894 59.0459 139.213C59.0459 138.527 58.9127 137.932 58.6464 137.429C58.386 136.926 57.9746 136.541 57.4124 136.275C56.856 136.002 56.1251 135.866 55.2195 135.866H51.7749V151.695H49.0317ZM58.0072 143.492L62.4994 151.695H59.3744L54.971 143.492H58.0072ZM66.6808 151.695H63.7689L70.3119 133.513H73.4813L80.0242 151.695H77.1123L71.972 136.816H71.83L66.6808 151.695ZM67.1691 144.575H76.6151V146.884H67.1691V144.575ZM85.3931 133.513V151.695H82.6499V133.513H85.3931ZM104.063 133.513V151.695H101.542L92.3001 138.361H92.1314V151.695H89.3881V133.513H91.9272L101.178 146.866H101.347V133.513H104.063ZM108.065 151.695V133.513H119.464V135.875H110.808V141.415H118.869V143.767H110.808V149.334H119.571V151.695H108.065Z" fill="#00264B"/>
<path d="M169.27 138.273C169.161 137.18 168.679 136.31 167.822 135.665C166.966 135.019 165.888 134.696 164.591 134.696C163.677 134.696 162.871 134.853 162.175 135.166C161.484 135.479 160.941 135.914 160.545 136.47C160.155 137.02 159.96 137.646 159.96 138.349C159.96 138.867 160.072 139.321 160.295 139.711C160.519 140.101 160.82 140.436 161.197 140.718C161.58 140.993 162.002 141.229 162.462 141.427C162.929 141.625 163.399 141.792 163.872 141.926L165.943 142.52C166.569 142.693 167.196 142.913 167.822 143.182C168.449 143.45 169.021 143.789 169.538 144.198C170.063 144.601 170.481 145.096 170.794 145.684C171.114 146.266 171.274 146.966 171.274 147.784C171.274 148.832 171.002 149.775 170.459 150.613C169.915 151.45 169.136 152.115 168.119 152.607C167.103 153.093 165.885 153.336 164.466 153.336C163.13 153.336 161.97 153.115 160.986 152.674C160.001 152.227 159.228 151.61 158.665 150.824C158.103 150.037 157.787 149.126 157.716 148.091H159.557C159.621 148.864 159.877 149.52 160.324 150.056C160.772 150.593 161.353 151.002 162.069 151.284C162.785 151.559 163.584 151.696 164.466 151.696C165.444 151.696 166.314 151.533 167.074 151.207C167.841 150.875 168.442 150.414 168.877 149.826C169.318 149.232 169.538 148.542 169.538 147.755C169.538 147.091 169.366 146.534 169.021 146.087C168.675 145.633 168.193 145.253 167.573 144.946C166.959 144.639 166.246 144.368 165.435 144.131L163.086 143.441C161.545 142.98 160.35 142.344 159.5 141.533C158.65 140.721 158.224 139.685 158.224 138.426C158.224 137.371 158.506 136.445 159.068 135.646C159.637 134.84 160.404 134.214 161.369 133.766C162.341 133.312 163.431 133.086 164.639 133.086C165.86 133.086 166.94 133.309 167.88 133.757C168.819 134.204 169.564 134.821 170.114 135.607C170.67 136.387 170.967 137.276 171.005 138.273H169.27ZM179.098 153V133.364H180.891V142.367H192.033V133.364H193.826V153H192.033V143.978H180.891V153H179.098ZM218.64 143.182C218.64 145.227 218.276 147.007 217.547 148.522C216.819 150.031 215.815 151.201 214.537 152.032C213.265 152.856 211.801 153.268 210.145 153.268C208.49 153.268 207.023 152.856 205.744 152.032C204.472 151.201 203.472 150.031 202.743 148.522C202.021 147.007 201.66 145.227 201.66 143.182C201.66 141.136 202.021 139.359 202.743 137.851C203.472 136.336 204.476 135.166 205.754 134.342C207.032 133.511 208.496 133.095 210.145 133.095C211.801 133.095 213.265 133.511 214.537 134.342C215.815 135.166 216.819 136.336 217.547 137.851C218.276 139.359 218.64 141.136 218.64 143.182ZM216.895 143.182C216.895 141.424 216.601 139.919 216.013 138.666C215.425 137.407 214.623 136.445 213.607 135.78C212.59 135.115 211.437 134.783 210.145 134.783C208.861 134.783 207.71 135.115 206.694 135.78C205.677 136.445 204.872 137.403 204.277 138.656C203.689 139.909 203.395 141.418 203.395 143.182C203.395 144.94 203.689 146.445 204.277 147.698C204.866 148.951 205.668 149.913 206.684 150.584C207.7 151.249 208.854 151.581 210.145 151.581C211.437 151.581 212.59 151.249 213.607 150.584C214.629 149.919 215.435 148.96 216.023 147.707C216.611 146.448 216.902 144.94 216.895 143.182ZM226.487 153V133.364H232.824C234.218 133.364 235.381 133.632 236.314 134.169C237.254 134.7 237.96 135.422 238.433 136.336C238.913 137.25 239.152 138.279 239.152 139.423C239.152 140.567 238.916 141.6 238.443 142.52C237.97 143.434 237.267 144.16 236.334 144.697C235.4 145.227 234.24 145.493 232.853 145.493H227.867V143.882H232.805C233.834 143.882 234.688 143.69 235.365 143.306C236.043 142.917 236.548 142.386 236.88 141.715C237.219 141.044 237.388 140.28 237.388 139.423C237.388 138.567 237.219 137.803 236.88 137.132C236.548 136.461 236.039 135.933 235.356 135.55C234.678 135.166 233.818 134.974 232.776 134.974H228.28V153H226.487Z" fill="#00264B"/>
</svg>
