<svg width="1280" height="720" viewBox="0 0 1280 720" fill="none" xmlns="http://www.w3.org/2000/svg">
<path d="M1476.34 67.6122L1068.23 774.478C1024.09 850.917 966.663 907.798 895.842 945.277C825.111 982.599 746.655 998.787 660.812 993.619C574.879 988.608 487.245 960.106 397.73 908.425C364.023 888.964 333.26 868.076 305.599 845.853C306.574 846 307.481 845.898 308.457 846.044C404.187 851.71 493 833.373 572.425 791.274C580.349 787.095 587.956 782.733 595.334 778.031C612.738 782.035 630.069 784.329 647.168 784.822C696.265 786.073 741.357 774.8 782.513 751.249C823.669 727.699 857.559 692.867 884.092 646.909L1283 -44.0124L1476.34 67.6122Z" fill="#00264B" fill-opacity="0.04"/>
<path d="M343.291 524.967C328.809 527.652 313.914 528.849 298.04 528.438C258.604 527.345 216.615 514.15 173.368 489.181C152.222 476.972 133.839 463.649 117.81 449.184C122.772 385.145 143.066 322.455 178.625 260.866L586.734 -446L780.074 -334.375L381.17 356.547C354.636 402.504 341.416 449.269 341.44 496.595C341.422 506.172 341.993 515.464 343.291 524.967Z" fill="#00264B" fill-opacity="0.04"/>
<path d="M1126.46 -134.39L718.348 572.477C674.216 648.916 616.785 705.796 545.964 743.275C539.217 746.883 532.401 750.243 525.517 753.354C460.252 783.411 388.612 796.239 310.934 791.618C286.757 790.165 262.349 786.91 237.798 781.698C221.01 763.043 205.987 743.532 192.482 723.229C149.64 658.269 124.929 589.812 118.327 518.263C127.007 524.525 136.367 530.346 146.224 536.037C197.898 565.871 248.283 581.413 297.29 582.821C317.337 583.348 336.675 581.799 355.394 578.017C382.544 572.85 408.298 563.126 432.635 549.247C473.791 525.697 507.681 490.865 534.214 444.908L933.118 -246.014L1126.46 -134.39Z" fill="#00264B" fill-opacity="0.04"/>
</svg>
