<svg width="14" height="14" viewBox="0 0 14 14" fill="none" xmlns="http://www.w3.org/2000/svg">
<g clip-path="url(#clip0_127_258)">
<path d="M0.583984 0.583008H2.91732L4.48065 8.39384C4.53399 8.66241 4.6801 8.90365 4.89339 9.07535C5.10667 9.24705 5.37356 9.33825 5.64732 9.33301H11.3173C11.5911 9.33825 11.858 9.24705 12.0712 9.07535C12.2845 8.90365 12.4306 8.66241 12.484 8.39384L13.4173 3.49967H3.50065M5.83398 12.2497C5.83398 12.5718 5.57282 12.833 5.25065 12.833C4.92849 12.833 4.66732 12.5718 4.66732 12.2497C4.66732 11.9275 4.92849 11.6663 5.25065 11.6663C5.57282 11.6663 5.83398 11.9275 5.83398 12.2497ZM12.2507 12.2497C12.2507 12.5718 11.9895 12.833 11.6673 12.833C11.3452 12.833 11.084 12.5718 11.084 12.2497C11.084 11.9275 11.3452 11.6663 11.6673 11.6663C11.9895 11.6663 12.2507 11.9275 12.2507 12.2497Z" stroke="#00264B" stroke-linecap="round" stroke-linejoin="round"/>
</g>
<defs>
<clipPath id="clip0_127_258">
<rect width="14" height="14" fill="white"/>
</clipPath>
</defs>
</svg>
