<svg width="13" height="13" viewBox="0 0 13 13" fill="none" xmlns="http://www.w3.org/2000/svg">
<path d="M8.66602 8.66667V1.625H0.541016V8.66667H8.66602ZM8.66602 8.66667H12.4577V5.95833L10.8327 4.33333H8.66602V8.66667ZM4.33268 10.0208C4.33268 10.7687 3.7264 11.375 2.97852 11.375C2.23063 11.375 1.62435 10.7687 1.62435 10.0208C1.62435 9.27295 2.23063 8.66667 2.97852 8.66667C3.7264 8.66667 4.33268 9.27295 4.33268 10.0208ZM11.3743 10.0208C11.3743 10.7687 10.7681 11.375 10.0202 11.375C9.2723 11.375 8.66602 10.7687 8.66602 10.0208C8.66602 9.27295 9.2723 8.66667 10.0202 8.66667C10.7681 8.66667 11.3743 9.27295 11.3743 10.0208Z" stroke="#24B535" stroke-linecap="round" stroke-linejoin="round"/>
</svg>
